<svg width="26" height="30" viewBox="0 0 26 30" fill="none" xmlns="http://www.w3.org/2000/svg">
<path d="M3.95043 11.5801V19.27C3.95043 20.2926 3.14691 21.1094 2.12426 21.1094C1.10824 21.1094 0.125427 20.286 0.125427 19.27V11.5801C0.125427 10.5774 1.10824 9.75397 2.12426 9.75397C3.12699 9.75397 3.95043 10.5774 3.95043 11.5801ZM4.66761 22.0059C4.66761 23.095 5.54418 23.9715 6.63324 23.9715H7.95472L7.97465 28.029C7.97465 30.4794 11.6403 30.4594 11.6403 28.029V23.9715H14.1106V28.029C14.1106 30.4661 17.7961 30.4727 17.7961 28.029V23.9715H19.1375C20.2133 23.9715 21.0899 23.095 21.0899 22.0059V10.0926H4.66761V22.0059ZM21.1364 9.4485H4.59457C4.59457 6.60631 6.29457 4.136 8.818 2.84772L7.54965 0.503578C7.36371 0.178187 7.83519 -0.0276719 7.99457 0.251234L9.28285 2.6153C11.6004 1.586 14.2633 1.63912 16.4746 2.6153L17.7563 0.257875C17.9223 -0.0276721 18.3871 0.184828 18.2012 0.510219L16.9328 2.84772C19.4364 4.136 21.1364 6.60631 21.1364 9.4485ZM9.80082 5.76295C9.80082 5.38444 9.49535 5.06569 9.10355 5.06569C8.72504 5.06569 8.42621 5.38444 8.42621 5.76295C8.42621 6.14147 8.73168 6.46022 9.10355 6.46022C9.49535 6.46022 9.80082 6.14147 9.80082 5.76295ZM17.3313 5.76295C17.3313 5.38444 17.0258 5.06569 16.6539 5.06569C16.2621 5.06569 15.9567 5.38444 15.9567 5.76295C15.9567 6.14147 16.2621 6.46022 16.6539 6.46022C17.0258 6.46022 17.3313 6.14147 17.3313 5.76295ZM23.6266 9.75397C22.6239 9.75397 21.8004 10.5575 21.8004 11.5801V19.27C21.8004 20.2926 22.6239 21.1094 23.6266 21.1094C24.6493 21.1094 25.6254 20.286 25.6254 19.27V11.5801C25.6254 10.5575 24.6426 9.75397 23.6266 9.75397Z" fill="white" fill-opacity="0.42"/>
</svg>
