<svg width="27" height="32" viewBox="0 0 27 32" fill="none" xmlns="http://www.w3.org/2000/svg">
<path d="M23.9119 22.312C24.2142 22.4331 24.4748 22.6395 24.6619 22.906C24.8299 23.156 24.9479 23.458 25.0219 23.812C25.0619 24.02 25.1099 24.212 25.1619 24.392C25.2599 24.7293 25.4076 25.0501 25.5999 25.344C25.6939 25.49 25.8199 25.65 25.9759 25.828C26.1099 25.974 26.2299 26.162 26.3359 26.39C26.4337 26.5951 26.4862 26.8188 26.4899 27.046C26.4977 27.2644 26.4322 27.4791 26.3039 27.656C26.1734 27.8278 26.0145 27.9759 25.8339 28.094C25.5939 28.26 25.3439 28.406 25.0839 28.532C24.8239 28.656 24.5639 28.786 24.3039 28.922C23.9152 29.1073 23.5437 29.3268 23.1939 29.578C22.8819 29.808 22.5679 30.098 22.2559 30.454C21.8922 30.8615 21.4711 31.2138 21.0059 31.5C20.7684 31.6507 20.5104 31.7665 20.2399 31.844C19.9799 31.916 19.7199 31.964 19.4599 31.984C18.8559 31.984 18.3559 31.88 17.9599 31.672C17.5639 31.464 17.2199 31.084 16.9279 30.532C16.8439 30.374 16.7619 30.276 16.6779 30.234C16.5482 30.179 16.4116 30.142 16.2719 30.124L14.6899 30C14.1699 29.96 13.6399 29.938 13.0979 29.938C12.6478 29.9386 12.1984 29.9747 11.7539 30.046C11.2959 30.12 10.8419 30.208 10.3939 30.312C10.3019 30.332 10.2079 30.412 10.1139 30.546C9.99689 30.7086 9.86571 30.8605 9.72193 31C9.52709 31.1855 9.30004 31.334 9.05193 31.438C8.69837 31.5761 8.32148 31.6447 7.94193 31.64C7.59793 31.64 7.22793 31.604 6.83193 31.532C6.46146 31.4676 6.10321 31.3461 5.76993 31.172C5.16873 30.8645 4.52703 30.6436 3.86393 30.516C3.23793 30.402 2.57793 30.296 1.87993 30.204C1.64858 30.1739 1.41894 30.1318 1.19193 30.078C0.982219 30.0306 0.78469 29.94 0.611927 29.812C0.453389 29.6947 0.321209 29.5455 0.223927 29.374C0.117275 29.1555 0.0631694 28.9151 0.0659268 28.672C0.0659268 28.348 0.107927 28.036 0.191927 27.734C0.275927 27.434 0.321927 27.114 0.331927 26.782C0.331927 26.552 0.315927 26.328 0.285927 26.11C0.252851 25.8766 0.231491 25.6416 0.221927 25.406C0.221927 24.876 0.347927 24.486 0.597927 24.234C0.847927 23.984 1.21193 23.786 1.69193 23.64C1.90517 23.5755 2.10599 23.4754 2.28593 23.344C2.45099 23.2195 2.60735 23.0838 2.75393 22.938C2.90274 22.7885 3.03856 22.6266 3.15993 22.454C3.28593 22.276 3.42593 22.098 3.58193 21.922C3.61305 21.882 3.62994 21.8327 3.62993 21.782C3.62993 21.656 3.62393 21.536 3.61393 21.422L3.58193 21.046C3.58193 20.338 3.69193 19.626 3.90993 18.906C4.12993 18.186 4.41593 17.486 4.76993 16.796C5.12337 16.1101 5.52018 15.4474 5.95793 14.812C6.39393 14.178 6.82793 13.588 7.25393 13.046C7.83257 12.3216 8.29169 11.5093 8.61393 10.64C8.91393 9.808 9.07193 8.9 9.08193 7.92C9.08193 7.506 9.06193 7.094 9.01993 6.688C8.97797 6.27266 8.95727 5.85545 8.95793 5.438C8.95793 4.604 9.05193 3.854 9.23793 3.188C9.42593 2.52 9.71793 1.948 10.1139 1.468C10.5099 0.988 11.0259 0.63 11.6599 0.39C12.2979 0.15 13.0579 0.02 13.9419 0C14.9959 0 15.8339 0.208 16.4599 0.626C17.0839 1.042 17.5639 1.588 17.8959 2.266C18.2299 2.942 18.4439 3.698 18.5359 4.532C18.6319 5.364 18.6839 6.208 18.6939 7.062V7.328C18.6939 7.756 18.6979 8.136 18.7099 8.468C18.7285 9.14299 18.8822 9.8074 19.1619 10.422C19.3079 10.744 19.5259 11.094 19.8179 11.468C20.3179 12.126 20.8299 12.788 21.3499 13.454C21.8699 14.12 22.3439 14.808 22.7699 15.514C23.1979 16.224 23.5479 16.964 23.8179 17.734C24.0899 18.506 24.2299 19.338 24.2399 20.234C24.2426 20.9404 24.1319 21.6427 23.9119 22.314V22.312ZM10.8039 6.032C10.9479 6.032 11.0679 6.068 11.1639 6.14C11.2615 6.2185 11.3366 6.32127 11.3819 6.438C11.4321 6.55812 11.4684 6.68361 11.4899 6.812C11.5099 6.938 11.5219 7.068 11.5219 7.204C11.5252 7.2899 11.5088 7.37541 11.4739 7.454C11.4397 7.5204 11.392 7.57897 11.3339 7.626L11.1459 7.782C11.0789 7.83876 11.0167 7.90098 10.9599 7.968C10.8849 8.08477 10.7827 8.18155 10.6619 8.25C10.5381 8.3219 10.4179 8.4 10.3019 8.484C10.1911 8.56438 10.0868 8.65332 9.98993 8.75C9.9415 8.80221 9.90413 8.86367 9.88007 8.93069C9.85601 8.99771 9.84576 9.06891 9.84993 9.14C9.84993 9.234 9.89593 9.312 9.98993 9.374C10.2231 9.52088 10.4081 9.73298 10.5219 9.984C10.6259 10.224 10.7419 10.458 10.8659 10.688C10.9899 10.916 11.1519 11.108 11.3499 11.266C11.5479 11.422 11.8559 11.5 12.2699 11.5H12.3659C12.7819 11.48 13.1779 11.37 13.5539 11.172C13.9279 10.974 14.3039 10.766 14.6779 10.546C14.7431 10.5094 14.8113 10.4786 14.8819 10.454C14.9546 10.4281 15.0227 10.391 15.0839 10.344L16.2239 9.454C16.2438 9.38696 16.2598 9.31885 16.2719 9.25C16.2841 9.17689 16.2947 9.10354 16.3039 9.03C16.3074 8.93057 16.2794 8.83257 16.2239 8.75C16.1728 8.67745 16.1099 8.61391 16.0379 8.562C15.958 8.50748 15.8673 8.47066 15.7719 8.454C15.6766 8.43486 15.583 8.40811 15.4919 8.374C15.2426 8.32275 15.0043 8.22797 14.7879 8.094C14.5731 7.96059 14.3418 7.85571 14.0999 7.782C14.0599 7.77 14.0279 7.74 14.0059 7.688C13.9821 7.62641 13.9614 7.56367 13.9439 7.5C13.9233 7.43406 13.9179 7.36434 13.9279 7.296C13.9393 7.24362 13.9337 7.18897 13.9119 7.14C13.9119 7.016 13.9219 6.886 13.9439 6.75C13.9655 6.61232 14.013 6.47998 14.0839 6.36C14.1449 6.24888 14.2304 6.15312 14.3339 6.08C14.4572 6.00804 14.5972 5.96944 14.7399 5.968C15.0639 5.968 15.2979 6.088 15.4439 6.328C15.5899 6.568 15.6679 6.828 15.6779 7.108C15.6805 7.23246 15.6538 7.35577 15.5999 7.468C15.5465 7.57477 15.5191 7.69263 15.5199 7.812C15.5199 7.896 15.5479 7.952 15.5999 7.984C15.6629 8.01854 15.7324 8.03965 15.8039 8.046C16.0439 8.046 16.1979 7.99 16.2719 7.876C16.3561 7.7172 16.3988 7.5397 16.3959 7.36C16.3959 7.12 16.3759 6.854 16.3359 6.562C16.2963 6.2795 16.2112 6.00527 16.0839 5.75C15.9674 5.51027 15.8026 5.29716 15.5999 5.124C15.3829 4.95157 15.1108 4.86348 14.8339 4.876C14.2939 4.876 13.9019 5.01 13.6619 5.282C13.4219 5.552 13.2979 5.958 13.2879 6.5C13.2879 6.656 13.2979 6.812 13.3179 6.968C13.3379 7.126 13.3499 7.282 13.3499 7.438C13.3499 7.49 13.3439 7.516 13.3339 7.516C13.3015 7.50895 13.2699 7.49821 13.2399 7.484C13.1776 7.45873 13.1156 7.43273 13.0539 7.406C12.9775 7.37372 12.8986 7.34763 12.8179 7.328C12.685 7.29571 12.547 7.29027 12.4119 7.312C12.329 7.32252 12.2455 7.32786 12.1619 7.328C12.0159 7.328 11.9419 7.302 11.9419 7.25C11.9419 7.094 11.9339 6.896 11.9119 6.656C11.8919 6.416 11.8399 6.176 11.7559 5.936C11.6861 5.72247 11.5806 5.52231 11.4439 5.344C11.3179 5.188 11.1319 5.104 10.8819 5.094C10.714 5.09012 10.5511 5.15182 10.4279 5.266C10.2996 5.38478 10.1891 5.52153 10.0999 5.672C10.0041 5.83449 9.94536 6.01616 9.92793 6.204C9.91115 6.37113 9.89048 6.53784 9.86593 6.704C9.87395 6.97993 9.92109 7.25332 10.0059 7.516C10.0579 7.682 10.1159 7.828 10.1779 7.954C10.2399 8.078 10.3139 8.14 10.3979 8.14C10.4479 8.14 10.5179 8.104 10.5999 8.032C10.6839 7.958 10.7259 7.892 10.7259 7.828C10.7259 7.796 10.7099 7.776 10.6779 7.766C10.6477 7.75559 10.6159 7.75018 10.5839 7.75C10.5119 7.75 10.4479 7.714 10.3959 7.64C10.3423 7.56333 10.3005 7.47906 10.2719 7.39C10.2391 7.29181 10.2078 7.19313 10.1779 7.094C10.1156 6.82416 10.1548 6.54083 10.2879 6.298C10.3819 6.13 10.5539 6.042 10.8039 6.032ZM7.39593 30.36C7.64593 30.36 7.89193 30.34 8.13193 30.296C8.36951 30.2551 8.59741 30.1704 8.80393 30.046C9.00197 29.9314 9.16406 29.7638 9.27193 29.562C9.38572 29.3277 9.44973 29.0723 9.45993 28.812C9.45994 28.626 9.42815 28.4413 9.36593 28.266C9.30238 28.0871 9.21275 27.9186 9.09993 27.766C8.97649 27.5704 8.84089 27.3827 8.69393 27.204C8.5469 27.0247 8.41129 26.8363 8.28793 26.64C8.09341 26.3541 7.90008 26.0675 7.70793 25.78C7.52193 25.5 7.33393 25.204 7.14793 24.89C6.98348 24.6239 6.82674 24.3531 6.67793 24.078C6.52501 23.7971 6.34695 23.5307 6.14593 23.282C6.01898 23.1235 5.87249 22.9817 5.70993 22.86C5.54292 22.7345 5.3388 22.6683 5.12993 22.672C4.91204 22.6688 4.70084 22.7473 4.53793 22.892C4.35174 23.0543 4.17916 23.2315 4.02193 23.422C3.83751 23.6381 3.63908 23.8419 3.42793 24.032C3.20793 24.23 2.92793 24.386 2.58393 24.5C2.35114 24.5624 2.137 24.6805 1.95993 24.844C1.81393 24.99 1.73993 25.214 1.73993 25.516C1.73993 25.724 1.75593 25.932 1.78793 26.14C1.81793 26.348 1.83993 26.558 1.84993 26.766C1.84993 27.046 1.80993 27.312 1.72393 27.562C1.64325 27.7984 1.60138 28.0462 1.59993 28.296C1.59993 28.578 1.69993 28.776 1.89593 28.89C2.09593 29.006 2.31793 29.084 2.56793 29.124C2.88193 29.178 3.17793 29.218 3.45993 29.25C3.73993 29.282 4.01593 29.33 4.28793 29.39C4.55793 29.454 4.82793 29.52 5.09993 29.594C5.36993 29.666 5.65793 29.782 5.95993 29.938C6.01993 29.968 6.11593 30.006 6.23993 30.046L6.66193 30.186C6.81793 30.24 6.96393 30.282 7.09993 30.312C7.19672 30.338 7.29589 30.354 7.39593 30.36ZM13.1159 28.484C13.4079 28.484 13.7199 28.454 14.0539 28.39C14.7339 28.2626 15.3916 28.0362 16.0059 27.718C16.2919 27.5722 16.5638 27.4001 16.8179 27.204C16.8432 27.1755 16.8647 27.1439 16.8819 27.11C16.9018 27.0698 16.9173 27.0276 16.9279 26.984V26.968C16.9899 26.74 17.0419 26.488 17.0839 26.218C17.1273 25.9429 17.1639 25.6668 17.1939 25.39C17.2242 25.1132 17.2608 24.8371 17.3039 24.562C17.3439 24.292 17.3819 24.026 17.4119 23.766C17.4539 23.486 17.5059 23.214 17.5679 22.954C17.6319 22.694 17.7139 22.448 17.8179 22.218C17.9207 21.9915 18.0637 21.7855 18.2399 21.61C18.445 21.4123 18.6766 21.244 18.9279 21.11V21.078L18.9119 21.032C18.9154 20.9259 18.9479 20.8229 19.0059 20.734C19.0759 20.6192 19.1542 20.5096 19.2399 20.406C19.3232 20.3008 19.424 20.2108 19.5379 20.14C19.642 20.0776 19.7518 20.0254 19.8659 19.984C19.8029 19.7327 19.7349 19.4826 19.6619 19.234C19.5895 18.9865 19.5268 18.7364 19.4739 18.484C19.4227 18.1646 19.3607 17.8471 19.2879 17.532C19.23 17.2876 19.1565 17.0471 19.0679 16.812C18.9784 16.5829 18.8572 16.3675 18.7079 16.172C18.5539 15.964 18.3599 15.712 18.1319 15.422C18.0448 15.3247 17.9659 15.2203 17.8959 15.11C17.8416 14.986 17.8104 14.8532 17.8039 14.718C17.779 14.5813 17.7476 14.4458 17.7099 14.312C17.5695 13.8055 17.408 13.3051 17.2259 12.812C17.1299 12.5487 17.0149 12.2927 16.8819 12.046C16.7757 11.8484 16.6609 11.6556 16.5379 11.468C16.4339 11.312 16.3239 11.234 16.2099 11.234C15.9599 11.234 15.6619 11.334 15.3179 11.532C14.9759 11.73 14.6099 11.948 14.2259 12.188C13.8399 12.428 13.4659 12.652 13.0999 12.86C12.7359 13.068 12.4079 13.166 12.1159 13.156C11.8043 13.1558 11.5017 13.0516 11.2559 12.86C10.9911 12.6582 10.7496 12.4274 10.5359 12.172C10.3179 11.912 10.1359 11.688 9.98993 11.5C9.84393 11.312 9.73593 11.208 9.66193 11.188C9.57993 11.188 9.53193 11.25 9.52193 11.374C9.51079 11.5144 9.50545 11.6552 9.50593 11.796V12.062C9.50593 12.126 9.49593 12.166 9.47393 12.188C9.35993 12.428 9.23393 12.662 9.09993 12.89C8.96393 13.12 8.82993 13.354 8.69393 13.594C8.42453 14.0552 8.27401 14.5762 8.25593 15.11C8.25593 15.266 8.26593 15.422 8.28793 15.578C8.30793 15.734 8.35993 15.886 8.44393 16.032L8.41193 16.092C8.33163 16.2035 8.24269 16.3085 8.14593 16.406C8.04738 16.5064 7.95895 16.6163 7.88193 16.734C7.49937 17.2991 7.22349 17.9295 7.06793 18.594C6.91193 19.26 6.82793 19.938 6.81793 20.624C6.81793 20.802 6.82993 20.98 6.84993 21.156C6.86993 21.334 6.88193 21.51 6.88193 21.688C6.88132 21.7457 6.87597 21.8032 6.86593 21.86C6.85588 21.9168 6.85053 21.9743 6.84993 22.032C7.07224 22.0571 7.28613 22.1316 7.47593 22.25C7.71593 22.386 7.97593 22.558 8.25593 22.766C8.53593 22.974 8.80393 23.214 9.05393 23.486C9.30393 23.756 9.54193 24.02 9.77193 24.282C10.0019 24.542 10.1679 24.802 10.2719 25.062C10.3759 25.322 10.4439 25.536 10.4739 25.702C10.4793 25.8229 10.4599 25.9437 10.4169 26.0568C10.3739 26.17 10.3082 26.2732 10.2239 26.36C10.0446 26.535 9.83254 26.6729 9.59993 26.766C9.77793 27.078 9.99593 27.344 10.2559 27.562C10.5159 27.782 10.7979 27.958 11.0999 28.094C11.4019 28.23 11.7299 28.328 12.0839 28.39C12.4379 28.454 12.7839 28.484 13.1159 28.484ZM19.3819 30.704C19.5999 30.704 19.8139 30.672 20.0219 30.61C20.3371 30.5196 20.6371 30.3828 20.9119 30.204C21.1839 30.026 21.4319 29.808 21.6619 29.546C22.2052 28.9191 22.87 28.4089 23.6159 28.046L24.1319 27.812C24.309 27.7348 24.4807 27.646 24.6459 27.546C24.7653 27.4704 24.876 27.3818 24.9759 27.282C25.0263 27.2333 25.0661 27.1748 25.0929 27.1102C25.1197 27.0455 25.133 26.976 25.1319 26.906C25.132 26.8255 25.1157 26.7459 25.0839 26.672C25.0466 26.5888 24.9996 26.5102 24.9439 26.438C24.8014 26.2396 24.666 26.0361 24.5379 25.828C24.4221 25.6387 24.3224 25.44 24.2399 25.234L23.9899 24.61C23.8997 24.3809 23.8262 24.1457 23.7699 23.906C23.7482 23.8319 23.7115 23.7632 23.6619 23.704C23.5614 23.5537 23.4241 23.4316 23.2631 23.3493C23.102 23.2671 22.9226 23.2274 22.7419 23.234C22.5554 23.2333 22.372 23.2816 22.2099 23.374L21.6779 23.672C21.4928 23.7747 21.3054 23.8734 21.1159 23.968C20.9317 24.0607 20.7282 24.1087 20.5219 24.108C20.3375 24.1161 20.1558 24.0618 20.0059 23.954C19.8621 23.8398 19.7448 23.6958 19.6619 23.532C19.573 23.3652 19.4949 23.1928 19.4279 23.016L19.2399 22.5C19.1585 22.6338 19.0647 22.7596 18.9599 22.876C18.8529 22.9952 18.7682 23.1327 18.7099 23.282C18.5739 23.594 18.4899 23.942 18.4599 24.328C18.4079 24.932 18.3399 25.52 18.2559 26.094C18.1704 26.6793 18.0297 27.2552 17.8359 27.814C17.7806 27.9927 17.7385 28.1752 17.7099 28.36C17.6789 28.5515 17.6575 28.7444 17.6459 28.938C17.6459 29.448 17.8039 29.87 18.1159 30.204C18.4279 30.536 18.8499 30.704 19.3819 30.704Z" fill="#636D85"/>
</svg>
